<svg width="48" height="48" viewBox="0 0 48 48" fill="none" xmlns="http://www.w3.org/2000/svg">
<circle cx="24" cy="24" r="24" fill="#FF4848"/>
<path d="M17.9101 15.3013C19.0075 15.3013 19.9392 15.4486 20.7051 15.7432C21.4785 16.0305 22.1855 16.4392 22.8263 16.9695L21.0476 19.1128C20.6278 18.7666 20.1638 18.4941 19.6556 18.2952C19.1474 18.089 18.595 17.9859 17.9985 17.9859C17.3577 17.9859 16.7722 18.17 16.2419 18.5383C15.7116 18.8992 15.2881 19.4737 14.9714 20.2617C14.6547 21.0424 14.4964 22.0588 14.4964 23.3109C14.4964 24.5408 14.6474 25.5462 14.9493 26.3269C15.2587 27.1002 15.6822 27.671 16.2198 28.0392C16.7575 28.4001 17.3724 28.5806 18.0648 28.5806C18.8307 28.5806 19.4678 28.437 19.976 28.1497C20.4842 27.8625 20.9519 27.5495 21.379 27.2107L23.0251 29.3097C22.4507 29.8768 21.7436 30.3629 20.904 30.768C20.0644 31.1731 19.0517 31.3756 17.8659 31.3756C16.4813 31.3756 15.2513 31.07 14.176 30.4587C13.1081 29.84 12.2684 28.9341 11.6571 27.741C11.0532 26.5404 10.7512 25.0637 10.7512 23.3109C10.7512 21.6022 11.0643 20.1512 11.6903 18.9581C12.3237 17.765 13.1817 16.859 14.2644 16.2404C15.347 15.6143 16.5623 15.3013 17.9101 15.3013ZM32.1308 26.371C32.1308 25.8334 32.024 25.4099 31.8104 25.1006C31.6042 24.7839 31.3096 24.5592 30.9266 24.4267C30.551 24.2941 30.1091 24.2278 29.6009 24.2278H28.1095V28.3596H29.4462C29.7997 28.3596 30.1349 28.3338 30.4516 28.2823C30.7756 28.2307 31.0629 28.135 31.3133 27.995C31.5711 27.8551 31.7699 27.6563 31.9098 27.3985C32.0571 27.1333 32.1308 26.7909 32.1308 26.371ZM31.5563 19.9634C31.5563 19.3595 31.3648 18.925 30.9818 18.6598C30.6062 18.3873 30.0207 18.251 29.2253 18.251H28.1095V21.7973H29.3357C30.1164 21.7973 30.6799 21.6537 31.026 21.3665C31.3796 21.0792 31.5563 20.6116 31.5563 19.9634ZM35.8649 26.5147C35.8649 27.3985 35.6955 28.1313 35.3567 28.7131C35.0179 29.295 34.5539 29.7516 33.9647 30.083C33.3755 30.4145 32.7016 30.6502 31.943 30.7901C31.1917 30.93 30.4 31 29.5677 31H24.4858V15.688H29.3357C30.1238 15.688 30.8677 15.7543 31.5674 15.8869C32.2744 16.0121 32.9004 16.2257 33.4455 16.5276C33.9905 16.8222 34.4177 17.2236 34.727 17.7318C35.0437 18.2326 35.202 18.855 35.202 19.5989C35.202 20.2102 35.0731 20.7404 34.8154 21.1897C34.5576 21.6316 34.2151 21.9962 33.7879 22.2834C33.3608 22.5633 32.8968 22.7658 32.3959 22.891C32.941 22.9794 33.4786 23.1525 34.0089 23.4103C34.5465 23.6607 34.9884 24.0363 35.3346 24.5371C35.6881 25.038 35.8649 25.6971 35.8649 26.5147Z" fill="white"/>
</svg>
