<svg width="48" height="48" viewBox="0 0 48 48" fill="none" xmlns="http://www.w3.org/2000/svg">
<circle cx="24" cy="24" r="24" fill="#C778DD"/>
<path d="M18.9101 16.3013C20.0075 16.3013 20.9392 16.4486 21.7051 16.7432C22.4785 17.0305 23.1855 17.4392 23.8263 17.9695L22.0476 20.1128C21.6278 19.7666 21.1638 19.4941 20.6556 19.2952C20.1474 19.089 19.595 18.9859 18.9985 18.9859C18.3577 18.9859 17.7722 19.17 17.2419 19.5383C16.7116 19.8992 16.2881 20.4737 15.9714 21.2617C15.6547 22.0424 15.4964 23.0588 15.4964 24.3109C15.4964 25.5408 15.6474 26.5462 15.9493 27.3269C16.2587 28.1002 16.6822 28.671 17.2198 29.0392C17.7575 29.4001 18.3724 29.5806 19.0648 29.5806C19.8307 29.5806 20.4678 29.437 20.976 29.1497C21.4842 28.8625 21.9519 28.5495 22.379 28.2107L24.0251 30.3097C23.4507 30.8768 22.7436 31.3629 21.904 31.768C21.0644 32.1731 20.0517 32.3756 18.8659 32.3756C17.4813 32.3756 16.2513 32.07 15.176 31.4587C14.1081 30.84 13.2684 29.9341 12.6571 28.741C12.0532 27.5404 11.7512 26.0637 11.7512 24.3109C11.7512 22.6022 12.0643 21.1512 12.6903 19.9581C13.3237 18.765 14.1817 17.859 15.2644 17.2404C16.347 16.6143 17.5623 16.3013 18.9101 16.3013ZM33.1308 27.371C33.1308 26.8334 33.024 26.4099 32.8104 26.1006C32.6042 25.7839 32.3096 25.5592 31.9266 25.4267C31.551 25.2941 31.1091 25.2278 30.6009 25.2278H29.1095V29.3596H30.4462C30.7997 29.3596 31.1349 29.3338 31.4516 29.2823C31.7756 29.2307 32.0629 29.135 32.3133 28.995C32.5711 28.8551 32.7699 28.6563 32.9098 28.3985C33.0571 28.1333 33.1308 27.7909 33.1308 27.371ZM32.5563 20.9634C32.5563 20.3595 32.3648 19.925 31.9818 19.6598C31.6062 19.3873 31.0207 19.251 30.2253 19.251H29.1095V22.7973H30.3357C31.1164 22.7973 31.6799 22.6537 32.026 22.3665C32.3796 22.0792 32.5563 21.6116 32.5563 20.9634ZM36.8649 27.5147C36.8649 28.3985 36.6955 29.1313 36.3567 29.7131C36.0179 30.295 35.5539 30.7516 34.9647 31.083C34.3755 31.4145 33.7016 31.6502 32.943 31.7901C32.1917 31.93 31.4 32 30.5677 32H25.4858V16.688H30.3357C31.1238 16.688 31.8677 16.7543 32.5674 16.8869C33.2744 17.0121 33.9004 17.2257 34.4455 17.5276C34.9905 17.8222 35.4177 18.2236 35.727 18.7318C36.0437 19.2326 36.202 19.855 36.202 20.5989C36.202 21.2102 36.0731 21.7404 35.8154 22.1897C35.5576 22.6316 35.2151 22.9962 34.7879 23.2834C34.3608 23.5633 33.8968 23.7658 33.3959 23.891C33.941 23.9794 34.4786 24.1525 35.0089 24.4103C35.5465 24.6607 35.9884 25.0363 36.3346 25.5371C36.6881 26.038 36.8649 26.6971 36.8649 27.5147Z" fill="white"/>
</svg>
