<svg width="221" height="48" viewBox="0 0 221 48" fill="none" xmlns="http://www.w3.org/2000/svg">
<rect width="48" height="48" rx="4" fill="#632599"/>
<path d="M9.70703 17.543C9.70703 17.293 9.61328 17.1094 9.42578 16.9922C9.24609 16.8672 9.04688 16.8047 8.82812 16.8047C8.39062 16.8047 7.96484 16.8711 7.55078 17.0039C7.13672 17.1289 6.76562 17.3047 6.4375 17.5312C6.10938 17.75 5.84375 18.0156 5.64062 18.3281C5.44531 18.6328 5.34766 18.9648 5.34766 19.3242C5.34766 19.5742 5.37891 19.7734 5.44141 19.9219C5.51172 20.0703 5.58984 20.1836 5.67578 20.2617C5.76172 20.332 5.84766 20.3789 5.93359 20.4023C6.02734 20.418 6.09375 20.4258 6.13281 20.4258C6.32812 20.4258 6.48828 20.3945 6.61328 20.332C6.73828 20.2617 6.85156 20.1914 6.95312 20.1211C7.05469 20.043 7.14844 19.9727 7.23438 19.9102C7.32812 19.8398 7.43359 19.8047 7.55078 19.8047C7.64453 19.8047 7.74219 19.8281 7.84375 19.875C7.95312 19.9141 8.05078 19.9805 8.13672 20.0742C8.23047 20.168 8.30859 20.293 8.37109 20.4492C8.43359 20.5977 8.46484 20.7812 8.46484 21C8.46484 21.3125 8.40234 21.582 8.27734 21.8086C8.16016 22.0352 8.00391 22.2266 7.80859 22.3828C7.62109 22.5312 7.40234 22.6445 7.15234 22.7227C6.91016 22.793 6.66797 22.8281 6.42578 22.8281C6.05078 22.8281 5.71094 22.7656 5.40625 22.6406C5.10938 22.5078 4.85547 22.3281 4.64453 22.1016C4.43359 21.875 4.27344 21.6094 4.16406 21.3047C4.05469 21 4 20.6758 4 20.332C4 19.3555 4.24609 18.5547 4.73828 17.9297C5.23047 17.2969 5.89844 16.8008 6.74219 16.4414C7.59375 16.0742 8.58203 15.8242 9.70703 15.6914C10.8398 15.5508 12.043 15.4805 13.3164 15.4805C14.7695 15.4805 16.082 15.6289 17.2539 15.9258C18.4336 16.2148 19.4414 16.6875 20.2773 17.3438C21.1133 18 21.7578 18.8594 22.2109 19.9219C22.6641 20.9766 22.8906 22.2656 22.8906 23.7891C22.8906 25.3125 22.6484 26.6641 22.1641 27.8438C21.6875 29.0234 21.0312 30.0156 20.1953 30.8203C19.3672 31.6172 18.3906 32.2266 17.2656 32.6484C16.1484 33.0625 14.9492 33.2695 13.668 33.2695C12.8164 33.2695 12.1289 33.2266 11.6055 33.1406C11.0898 33.0625 10.6914 32.9258 10.4102 32.7305C10.1289 32.5273 9.94141 32.2617 9.84766 31.9336C9.75391 31.5977 9.70703 31.1758 9.70703 30.668V17.543ZM13.5742 30.7734C13.5742 31.2188 13.6719 31.5391 13.8672 31.7344C14.0703 31.9219 14.3672 32.0156 14.7578 32.0156C15.3438 32.0156 15.8828 31.8867 16.375 31.6289C16.875 31.3711 17.3047 30.9297 17.6641 30.3047C18.0234 29.6719 18.3047 28.832 18.5078 27.7852C18.7109 26.7383 18.8125 25.4219 18.8125 23.8359C18.8125 22.7734 18.7461 21.8555 18.6133 21.082C18.4883 20.3008 18.3203 19.6406 18.1094 19.1016C17.8984 18.5547 17.6562 18.1133 17.3828 17.7773C17.1172 17.4336 16.8438 17.168 16.5625 16.9805C16.2812 16.7852 16.0039 16.6562 15.7305 16.5938C15.4648 16.5234 15.2266 16.4883 15.0156 16.4883C14.5078 16.4883 14.1406 16.6016 13.9141 16.8281C13.6875 17.0547 13.5742 17.4609 13.5742 18.0469V30.7734ZM33.7188 30.9141C33.7188 31.0938 33.7344 31.2656 33.7656 31.4297C33.8047 31.5859 33.875 31.7227 33.9766 31.8398C34.0859 31.957 34.2305 32.0508 34.4102 32.1211C34.5977 32.1914 34.8398 32.2266 35.1367 32.2266C35.5664 32.2266 35.9609 32.1055 36.3203 31.8633C36.6797 31.6133 36.9883 31.2969 37.2461 30.9141C37.5039 30.5234 37.7031 30.0898 37.8438 29.6133C37.9844 29.1289 38.0547 28.6484 38.0547 28.1719C38.0547 27.4609 37.957 26.8359 37.7617 26.2969C37.5742 25.75 37.3086 25.2891 36.9648 24.9141C36.6211 24.5391 36.2148 24.25 35.7461 24.0469C35.2773 23.8359 34.7695 23.7148 34.2227 23.6836L34.457 23.0859C34.8008 23.1016 35.1289 23.0547 35.4414 22.9453C35.7539 22.8359 36.0273 22.6445 36.2617 22.3711C36.5039 22.0977 36.6953 21.7305 36.8359 21.2695C36.9766 20.8008 37.0469 20.2148 37.0469 19.5117C37.0469 19.0352 36.9883 18.6055 36.8711 18.2227C36.7539 17.8398 36.5977 17.5195 36.4023 17.2617C36.2148 16.9961 35.9922 16.793 35.7344 16.6523C35.4844 16.5117 35.2266 16.4414 34.9609 16.4414C34.7969 16.4414 34.6367 16.4609 34.4805 16.5C34.332 16.5391 34.1992 16.6055 34.082 16.6992C33.9727 16.793 33.8828 16.918 33.8125 17.0742C33.75 17.2227 33.7188 17.4102 33.7188 17.6367V30.9141ZM33.9531 15.4805C36.2188 15.4805 37.8828 15.8359 38.9453 16.5469C40.0156 17.25 40.5508 18.2773 40.5508 19.6289C40.5508 19.9648 40.5117 20.2734 40.4336 20.5547C40.3633 20.8359 40.2695 21.0938 40.1523 21.3281C40.0352 21.5547 39.9023 21.7578 39.7539 21.9375C39.6055 22.1172 39.4531 22.2734 39.2969 22.4062C38.9297 22.7266 38.5156 22.9766 38.0547 23.1562V23.332C38.7812 23.418 39.4336 23.6367 40.0117 23.9883C40.2539 24.1367 40.4922 24.3242 40.7266 24.5508C40.9609 24.7695 41.168 25.0391 41.3477 25.3594C41.5352 25.6719 41.6836 26.0391 41.793 26.4609C41.9102 26.875 41.9688 27.3516 41.9688 27.8906C41.9688 28.7109 41.8203 29.4492 41.5234 30.1055C41.2266 30.7617 40.7852 31.3203 40.1992 31.7812C39.6133 32.2344 38.8828 32.582 38.0078 32.8242C37.1328 33.0664 36.1172 33.1875 34.9609 33.1875C33.8906 33.1875 33.0195 33.1211 32.3477 32.9883C31.6758 32.8555 31.1523 32.6641 30.7773 32.4141C30.4023 32.1562 30.1445 31.8477 30.0039 31.4883C29.8711 31.1289 29.8047 30.7227 29.8047 30.2695V17.4492C29.8047 17.0195 29.5078 16.8047 28.9141 16.8047C28.4844 16.8047 28.0469 16.8711 27.6016 17.0039C27.1641 17.1289 26.7656 17.3047 26.4062 17.5312C26.0547 17.75 25.7656 18.0156 25.5391 18.3281C25.3125 18.6328 25.1992 18.9648 25.1992 19.3242C25.1992 19.5742 25.2305 19.7734 25.293 19.9219C25.3633 20.0703 25.4414 20.1836 25.5273 20.2617C25.6133 20.332 25.6992 20.3789 25.7852 20.4023C25.8789 20.418 25.9453 20.4258 25.9844 20.4258C26.1797 20.4258 26.3398 20.3945 26.4648 20.332C26.5898 20.2617 26.7031 20.1914 26.8047 20.1211C26.9062 20.043 27 19.9727 27.0859 19.9102C27.1797 19.8398 27.2852 19.8047 27.4023 19.8047C27.4961 19.8047 27.5938 19.8281 27.6953 19.875C27.8047 19.9141 27.9023 19.9805 27.9883 20.0742C28.082 20.168 28.1602 20.293 28.2227 20.4492C28.2852 20.5977 28.3164 20.7812 28.3164 21C28.3164 21.3125 28.2539 21.582 28.1289 21.8086C28.0117 22.0352 27.8555 22.2266 27.6602 22.3828C27.4727 22.5312 27.2539 22.6445 27.0039 22.7227C26.7617 22.793 26.5195 22.8281 26.2773 22.8281C25.9023 22.8281 25.5625 22.7656 25.2578 22.6406C24.9609 22.5078 24.707 22.3281 24.4961 22.1016C24.2852 21.875 24.125 21.6094 24.0156 21.3047C23.9062 21 23.8516 20.6758 23.8516 20.332C23.8516 19.6836 23.9727 19.1133 24.2148 18.6211C24.457 18.1211 24.7969 17.6914 25.2344 17.332C25.6797 16.9727 26.2109 16.6758 26.8281 16.4414C27.4453 16.1992 28.1289 16.0078 28.8789 15.8672C29.6289 15.7266 30.4297 15.6289 31.2812 15.5742C32.1406 15.5117 33.0312 15.4805 33.9531 15.4805Z" fill="white"/>
<path d="M70.912 13.88C74.2187 13.88 76.7787 14.7973 78.592 16.632C80.4053 18.4453 81.312 21.048 81.312 24.44C81.312 27.8107 80.4053 30.4133 78.592 32.248C76.7787 34.0827 74.2187 35 70.912 35H62.752V13.88H70.912ZM70.688 31.48C72.6933 31.48 74.1973 30.8827 75.2 29.688C76.224 28.472 76.736 26.7227 76.736 24.44C76.736 22.1573 76.224 20.4187 75.2 19.224C74.1973 18.008 72.6933 17.4 70.688 17.4H67.168V31.48H70.688ZM95.8 19H100.344L94.264 35H89.208L83.128 19H87.8L91.768 31.64L95.8 19ZM110.009 35.32C108.324 35.32 106.852 34.9893 105.593 34.328C104.356 33.6667 103.396 32.7173 102.713 31.48C102.031 30.2427 101.689 28.7493 101.689 27C101.689 25.2507 102.031 23.7573 102.713 22.52C103.396 21.2827 104.345 20.3333 105.561 19.672C106.799 19.0107 108.207 18.68 109.785 18.68C111.407 18.68 112.783 19.0107 113.913 19.672C115.044 20.312 115.908 21.1973 116.505 22.328C117.103 23.4373 117.401 24.7067 117.401 26.136C117.401 26.5627 117.391 26.968 117.369 27.352C117.348 27.736 117.316 28.0773 117.273 28.376H104.505V25.336H115.353L113.241 26.104C113.241 24.76 112.932 23.7253 112.313 23C111.716 22.2747 110.863 21.912 109.753 21.912C108.943 21.912 108.239 22.104 107.641 22.488C107.065 22.872 106.628 23.448 106.329 24.216C106.031 24.9627 105.881 25.912 105.881 27.064C105.881 28.1947 106.041 29.1333 106.361 29.88C106.703 30.6053 107.172 31.1493 107.769 31.512C108.388 31.8747 109.124 32.056 109.977 32.056C110.916 32.056 111.673 31.8747 112.249 31.512C112.825 31.1493 113.273 30.648 113.593 30.008L117.081 31.352C116.74 32.184 116.217 32.8987 115.513 33.496C114.831 34.0933 114.009 34.552 113.049 34.872C112.111 35.1707 111.097 35.32 110.009 35.32ZM121.117 35V19H124.925L125.213 22.136C125.639 21.0267 126.258 20.1733 127.069 19.576C127.901 18.9787 128.935 18.68 130.173 18.68C130.535 18.68 130.866 18.712 131.165 18.776C131.463 18.84 131.709 18.9253 131.901 19.032L131.389 22.712C131.175 22.6267 130.909 22.5627 130.589 22.52C130.29 22.4773 129.895 22.456 129.405 22.456C128.765 22.456 128.146 22.616 127.549 22.936C126.951 23.2347 126.461 23.704 126.077 24.344C125.693 24.9627 125.501 25.752 125.501 26.712V35H121.117ZM149.657 19L143.193 35.992C142.681 37.4427 142.105 38.5947 141.465 39.448C140.846 40.3013 140.121 40.92 139.289 41.304C138.478 41.688 137.507 41.88 136.377 41.88C135.545 41.88 134.777 41.7733 134.073 41.56C133.39 41.368 132.793 41.112 132.28 40.792L133.209 37.624C133.614 37.944 134.041 38.168 134.489 38.296C134.937 38.4453 135.449 38.52 136.025 38.52C136.622 38.52 137.134 38.392 137.561 38.136C138.009 37.88 138.382 37.368 138.681 36.6L139.225 35.224L137.465 31.064L132.569 19H137.433L140.473 28.6L141.305 31.8L142.297 28.408L145.209 19H149.657ZM152.533 35V13.88H161.781C164.341 13.88 166.229 14.3813 167.445 15.384C168.661 16.3867 169.269 17.8053 169.269 19.64C169.269 20.7707 168.928 21.7733 168.245 22.648C167.563 23.5227 166.56 24.0773 165.237 24.312V24.344C166.709 24.5573 167.84 25.112 168.629 26.008C169.419 26.904 169.813 27.9707 169.813 29.208C169.813 31.0213 169.152 32.44 167.829 33.464C166.528 34.488 164.619 35 162.101 35H152.533ZM156.821 31.672H161.717C162.912 31.672 163.797 31.4267 164.373 30.936C164.949 30.4453 165.237 29.7627 165.237 28.888C165.237 27.992 164.949 27.3093 164.373 26.84C163.797 26.3707 162.912 26.136 161.717 26.136H156.821V31.672ZM156.821 22.744H161.205C163.531 22.744 164.693 21.8373 164.693 20.024C164.693 18.2107 163.531 17.304 161.205 17.304H156.821V22.744ZM181.009 35.32C179.324 35.32 177.852 34.9893 176.593 34.328C175.356 33.6667 174.396 32.7173 173.713 31.48C173.031 30.2427 172.689 28.7493 172.689 27C172.689 25.2507 173.031 23.7573 173.713 22.52C174.396 21.2827 175.345 20.3333 176.561 19.672C177.799 19.0107 179.207 18.68 180.785 18.68C182.407 18.68 183.783 19.0107 184.913 19.672C186.044 20.312 186.908 21.1973 187.505 22.328C188.103 23.4373 188.401 24.7067 188.401 26.136C188.401 26.5627 188.391 26.968 188.369 27.352C188.348 27.736 188.316 28.0773 188.273 28.376H175.505V25.336H186.353L184.241 26.104C184.241 24.76 183.932 23.7253 183.313 23C182.716 22.2747 181.863 21.912 180.753 21.912C179.943 21.912 179.239 22.104 178.641 22.488C178.065 22.872 177.628 23.448 177.329 24.216C177.031 24.9627 176.881 25.912 176.881 27.064C176.881 28.1947 177.041 29.1333 177.361 29.88C177.703 30.6053 178.172 31.1493 178.769 31.512C179.388 31.8747 180.124 32.056 180.977 32.056C181.916 32.056 182.673 31.8747 183.249 31.512C183.825 31.1493 184.273 30.648 184.593 30.008L188.081 31.352C187.74 32.184 187.217 32.8987 186.513 33.496C185.831 34.0933 185.009 34.552 184.049 34.872C183.111 35.1707 182.097 35.32 181.009 35.32ZM198.517 35.32C196.895 35.32 195.413 35.032 194.069 34.456C192.746 33.88 191.669 33.0693 190.837 32.024L193.365 29.464C193.877 30.232 194.559 30.8613 195.413 31.352C196.266 31.8427 197.279 32.088 198.453 32.088C199.285 32.088 199.946 31.9707 200.437 31.736C200.949 31.48 201.205 31.0853 201.205 30.552C201.205 30.2107 201.087 29.9227 200.853 29.688C200.618 29.432 200.149 29.2293 199.445 29.08L196.629 28.504C194.773 28.12 193.45 27.544 192.661 26.776C191.893 25.9867 191.509 24.9733 191.509 23.736C191.509 22.8613 191.765 22.04 192.277 21.272C192.81 20.504 193.599 19.8853 194.645 19.416C195.69 18.9253 196.991 18.68 198.549 18.68C200.149 18.68 201.535 18.936 202.709 19.448C203.903 19.9387 204.842 20.6747 205.525 21.656L202.901 24.216C202.431 23.4693 201.813 22.904 201.045 22.52C200.298 22.1147 199.509 21.912 198.677 21.912C198.079 21.912 197.567 21.976 197.141 22.104C196.714 22.232 196.394 22.4133 196.181 22.648C195.967 22.8613 195.861 23.1387 195.861 23.48C195.861 23.8213 196.01 24.12 196.309 24.376C196.607 24.6107 197.151 24.8133 197.941 24.984L201.205 25.656C202.783 25.976 203.914 26.52 204.597 27.288C205.279 28.0347 205.621 28.9413 205.621 30.008C205.621 31.032 205.343 31.9493 204.789 32.76C204.255 33.5493 203.455 34.1787 202.389 34.648C201.343 35.096 200.053 35.32 198.517 35.32ZM214.781 14.104V29.784C214.781 30.552 214.973 31.1173 215.357 31.48C215.762 31.8213 216.306 31.992 216.989 31.992C217.522 31.992 217.991 31.9173 218.397 31.768C218.802 31.5973 219.165 31.3733 219.485 31.096L220.189 34.008C219.677 34.4133 219.037 34.7333 218.269 34.968C217.501 35.2027 216.69 35.32 215.837 35.32C214.77 35.32 213.821 35.16 212.989 34.84C212.178 34.52 211.538 34.008 211.069 33.304C210.621 32.6 210.397 31.6613 210.397 30.488V15.32L214.781 14.104ZM219.901 19V22.264H207.453V19H219.901Z" fill="#132238"/>
</svg>
